<svg width="12" height="12" viewBox="0 0 12 12" fill="none" xmlns="http://www.w3.org/2000/svg">
<path d="M2.47 3.28C2.33752 3.13783 2.2654 2.94978 2.26882 2.75548C2.27225 2.56118 2.35096 2.37579 2.48838 2.23838C2.62579 2.10097 2.81118 2.02225 3.00548 2.01883C3.19978 2.0154 3.38782 2.08752 3.53 2.22L6.78 5.47C6.92045 5.61063 6.99934 5.80125 6.99934 6C6.99934 6.19875 6.92045 6.38937 6.78 6.53L3.53 9.78C3.38782 9.91248 3.19978 9.9846 3.00548 9.98118C2.81118 9.97775 2.62579 9.89903 2.48838 9.76162C2.35096 9.62421 2.27225 9.43882 2.26882 9.24452C2.2654 9.05022 2.33752 8.86217 2.47 8.72L5.19 6L2.47 3.28ZM9.75 10C9.94891 10 10.1397 9.92098 10.2803 9.78033C10.421 9.63968 10.5 9.44891 10.5 9.25V2.75C10.5 2.55109 10.421 2.36032 10.2803 2.21967C10.1397 2.07902 9.94891 2 9.75 2C9.55109 2 9.36032 2.07902 9.21967 2.21967C9.07902 2.36032 9 2.55109 9 2.75V9.25C9 9.664 9.336 10 9.75 10Z" fill="black"/>
</svg>
